<?xml version="1.0"?>
<svg width="303" height="74" xmlns="http://www.w3.org/2000/svg" xmlns:svg="http://www.w3.org/2000/svg">

 <g class="layer">
  <title>Layer 1</title>
  <path d="m91.52,46.36c-0.99,0 -1.79,-0.23 -2.4,-0.68c-0.61,-0.48 -1.09,-1.21 -1.44,-2.2l-7.8,-21.72c-0.43,-1.2 -0.36,-2.21 0.2,-3.04c0.59,-0.85 1.61,-1.28 3.08,-1.28c0.99,0 1.76,0.24 2.32,0.72c0.56,0.45 1,1.17 1.32,2.16l5.96,17.88l-1.88,0l6.4,-17.88c0.37,-0.99 0.84,-1.71 1.4,-2.16c0.56,-0.48 1.28,-0.72 2.16,-0.72c0.88,0 1.59,0.24 2.12,0.72c0.53,0.45 0.97,1.19 1.32,2.2l6,17.84l-1.6,0l6.12,-17.88c0.32,-0.99 0.75,-1.71 1.28,-2.16c0.56,-0.48 1.33,-0.72 2.32,-0.72c1.23,0 2.12,0.43 2.68,1.28c0.59,0.83 0.65,1.84 0.2,3.04l-7.88,21.76c-0.35,0.96 -0.83,1.68 -1.44,2.16c-0.59,0.45 -1.37,0.68 -2.36,0.68c-1.01,0 -1.83,-0.23 -2.44,-0.68c-0.59,-0.48 -1.05,-1.21 -1.4,-2.2l-5.64,-15.84l1,0l-5.76,15.88c-0.37,0.96 -0.85,1.68 -1.44,2.16c-0.59,0.45 -1.39,0.68 -2.4,0.68zm34.85,7.2c-1.12,0 -1.98,-0.31 -2.6,-0.92c-0.61,-0.61 -0.92,-1.51 -0.92,-2.68l0,-20.44c0,-1.15 0.3,-2.03 0.88,-2.64c0.62,-0.61 1.48,-0.92 2.6,-0.92c1.15,0 2.02,0.31 2.6,0.92c0.62,0.61 0.92,1.49 0.92,2.64l0,2.32l-0.44,-1.96c0.38,-1.2 1.15,-2.16 2.32,-2.88c1.2,-0.75 2.56,-1.12 4.08,-1.12c1.71,0 3.2,0.41 4.48,1.24c1.31,0.83 2.32,2 3.04,3.52c0.72,1.52 1.08,3.36 1.08,5.52c0,2.11 -0.36,3.93 -1.08,5.48c-0.72,1.55 -1.73,2.73 -3.04,3.56c-1.28,0.83 -2.77,1.24 -4.48,1.24c-1.46,0 -2.78,-0.35 -3.96,-1.04c-1.17,-0.69 -1.96,-1.6 -2.36,-2.72l0.48,0l0,7.28c0,1.17 -0.32,2.07 -0.96,2.68c-0.61,0.61 -1.49,0.92 -2.64,0.92zm7.2,-12.36c0.72,0 1.35,-0.17 1.88,-0.52c0.56,-0.37 1,-0.92 1.32,-1.64c0.32,-0.75 0.48,-1.71 0.48,-2.88c0,-1.79 -0.34,-3.07 -1.04,-3.84c-0.69,-0.8 -1.57,-1.2 -2.64,-1.2c-0.72,0 -1.36,0.17 -1.92,0.52c-0.56,0.35 -1,0.89 -1.32,1.64c-0.32,0.72 -0.48,1.68 -0.48,2.88c0,1.76 0.35,3.04 1.04,3.84c0.7,0.8 1.59,1.2 2.68,1.2zm17.61,12.36c-1.12,0 -1.99,-0.31 -2.6,-0.92c-0.61,-0.61 -0.92,-1.51 -0.92,-2.68l0,-20.44c0,-1.15 0.29,-2.03 0.88,-2.64c0.61,-0.61 1.48,-0.92 2.6,-0.92c1.14,0 2.01,0.31 2.6,0.92c0.61,0.61 0.92,1.49 0.92,2.64l0,2.32l-0.44,-1.96c0.37,-1.2 1.15,-2.16 2.32,-2.88c1.2,-0.75 2.56,-1.12 4.08,-1.12c1.7,0 3.2,0.41 4.48,1.24c1.31,0.83 2.32,2 3.04,3.52c0.72,1.52 1.08,3.36 1.08,5.52c0,2.11 -0.36,3.93 -1.08,5.48c-0.72,1.55 -1.73,2.73 -3.04,3.56c-1.28,0.83 -2.78,1.24 -4.48,1.24c-1.47,0 -2.79,-0.35 -3.96,-1.04c-1.17,-0.69 -1.96,-1.6 -2.36,-2.72l0.48,0l0,7.28c0,1.17 -0.32,2.07 -0.96,2.68c-0.61,0.61 -1.5,0.92 -2.64,0.92zm7.2,-12.36c0.72,0 1.34,-0.17 1.88,-0.52c0.56,-0.37 1,-0.92 1.32,-1.64c0.32,-0.75 0.48,-1.71 0.48,-2.88c0,-1.79 -0.35,-3.07 -1.04,-3.84c-0.7,-0.8 -1.58,-1.2 -2.64,-1.2c-0.72,0 -1.36,0.17 -1.92,0.52c-0.56,0.35 -1,0.89 -1.32,1.64c-0.32,0.72 -0.48,1.68 -0.48,2.88c0,1.76 0.34,3.04 1.04,3.84c0.69,0.8 1.58,1.2 2.68,1.2zm29.45,5.16c-1.12,0 -1.98,-0.29 -2.56,-0.88c-0.59,-0.59 -0.88,-1.45 -0.88,-2.6l0,-21.8c0,-1.17 0.29,-2.07 0.88,-2.68c0.58,-0.64 1.36,-0.96 2.32,-0.96c0.85,0 1.52,0.16 2,0.48c0.48,0.32 1.01,0.85 1.6,1.6l12.68,15.84l-1.12,0l0,-14.48c0,-1.12 0.28,-1.97 0.84,-2.56c0.59,-0.59 1.44,-0.88 2.56,-0.88c1.12,0 1.96,0.29 2.52,0.88c0.58,0.59 0.88,1.44 0.88,2.56l0,22.16c0,1.01 -0.27,1.83 -0.8,2.44c-0.53,0.59 -1.25,0.88 -2.16,0.88c-0.91,0 -1.63,-0.16 -2.16,-0.48c-0.51,-0.35 -1.05,-0.88 -1.64,-1.6l-12.68,-15.88l1.12,0l0,14.48c0,1.15 -0.29,2.01 -0.88,2.6c-0.56,0.59 -1.4,0.88 -2.52,0.88zm36.35,0.08c-2.19,0 -4.09,-0.41 -5.72,-1.24c-1.63,-0.83 -2.89,-2.01 -3.8,-3.56c-0.91,-1.55 -1.36,-3.37 -1.36,-5.48c0,-1.6 0.25,-3.03 0.76,-4.28c0.51,-1.28 1.24,-2.36 2.2,-3.24c0.96,-0.91 2.11,-1.59 3.44,-2.04c1.33,-0.48 2.83,-0.72 4.48,-0.72c2.19,0 4.09,0.41 5.72,1.24c1.63,0.83 2.88,2.01 3.76,3.56c0.91,1.52 1.36,3.35 1.36,5.48c0,1.57 -0.25,3 -0.76,4.28c-0.51,1.28 -1.24,2.37 -2.2,3.28c-0.93,0.88 -2.08,1.56 -3.44,2.04c-1.33,0.45 -2.81,0.68 -4.44,0.68zm0,-5.24c0.72,0 1.36,-0.17 1.92,-0.52c0.56,-0.37 0.99,-0.92 1.28,-1.64c0.32,-0.75 0.48,-1.71 0.48,-2.88c0,-1.79 -0.35,-3.07 -1.04,-3.84c-0.69,-0.8 -1.57,-1.2 -2.64,-1.2c-0.72,0 -1.36,0.17 -1.92,0.52c-0.56,0.35 -1,0.89 -1.32,1.64c-0.32,0.72 -0.48,1.68 -0.48,2.88c0,1.76 0.35,3.04 1.04,3.84c0.69,0.8 1.59,1.2 2.68,1.2zm24.23,5.24c-2,0 -3.66,-0.31 -4.96,-0.92c-1.28,-0.61 -2.24,-1.53 -2.88,-2.76c-0.64,-1.25 -0.96,-2.81 -0.96,-4.68l0,-6.52l-1.36,0c-0.86,0 -1.52,-0.23 -2,-0.68c-0.46,-0.45 -0.68,-1.11 -0.68,-1.96c0,-0.85 0.22,-1.49 0.68,-1.92c0.48,-0.45 1.14,-0.68 2,-0.68l1.36,0l0,-2.48c0,-1.17 0.3,-2.07 0.92,-2.68c0.61,-0.61 1.49,-0.92 2.64,-0.92c1.14,0 2.02,0.31 2.64,0.92c0.61,0.61 0.92,1.51 0.92,2.68l0,2.48l3.28,0c0.88,0 1.54,0.23 2,0.68c0.48,0.43 0.72,1.07 0.72,1.92c0,0.85 -0.24,1.51 -0.72,1.96c-0.46,0.45 -1.12,0.68 -2,0.68l-3.28,0l0,6.28c0,0.99 0.22,1.72 0.68,2.2c0.48,0.45 1.22,0.68 2.24,0.68c0.37,0 0.73,-0.04 1.08,-0.12c0.34,-0.08 0.66,-0.12 0.96,-0.12c0.42,-0.03 0.77,0.11 1.04,0.4c0.26,0.27 0.4,0.89 0.4,1.88c0,0.8 -0.12,1.48 -0.36,2.04c-0.24,0.53 -0.67,0.92 -1.28,1.16c-0.38,0.13 -0.88,0.24 -1.52,0.32c-0.64,0.11 -1.16,0.16 -1.56,0.16zm10.93,-0.08c-1.12,0 -1.98,-0.33 -2.6,-1c-0.61,-0.67 -0.92,-1.63 -0.92,-2.88l0,-12.64c0,-1.25 0.31,-2.21 0.92,-2.88c0.62,-0.67 1.48,-1 2.6,-1c1.15,0 2.03,0.33 2.64,1c0.64,0.67 0.96,1.63 0.96,2.88l0,12.64c0,1.25 -0.3,2.21 -0.92,2.88c-0.61,0.67 -1.5,1 -2.68,1zm0,-23.24c-1.25,0 -2.22,-0.29 -2.92,-0.88c-0.66,-0.59 -1,-1.44 -1,-2.56c0,-1.09 0.34,-1.93 1,-2.52c0.7,-0.59 1.67,-0.88 2.92,-0.88c1.31,0 2.3,0.29 2.96,0.88c0.67,0.59 1,1.43 1,2.52c0,1.12 -0.33,1.97 -1,2.56c-0.66,0.59 -1.65,0.88 -2.96,0.88zm12.97,23.24c-1.14,0 -2.02,-0.31 -2.64,-0.92c-0.61,-0.61 -0.92,-1.51 -0.92,-2.68l0,-11.2l-1.04,0c-0.85,0 -1.52,-0.23 -2,-0.68c-0.45,-0.45 -0.68,-1.11 -0.68,-1.96c0,-0.85 0.23,-1.49 0.68,-1.92c0.48,-0.45 1.15,-0.68 2,-0.68l3.08,0l-2.04,1.88l0,-1.12c0,-2.96 0.74,-5.17 2.2,-6.64c1.5,-1.49 3.71,-2.39 6.64,-2.68l1.16,-0.12c0.86,-0.11 1.54,0 2.04,0.32c0.51,0.29 0.86,0.69 1.04,1.2c0.19,0.48 0.23,0.99 0.12,1.52c-0.08,0.53 -0.28,0.99 -0.6,1.36c-0.32,0.37 -0.74,0.59 -1.28,0.64l-0.56,0.04c-1.36,0.11 -2.3,0.4 -2.84,0.88c-0.53,0.48 -0.8,1.19 -0.8,2.12l0,1.32l-0.88,-0.72l3.16,0c0.88,0 1.55,0.23 2,0.68c0.46,0.43 0.68,1.07 0.68,1.92c0,0.85 -0.22,1.51 -0.68,1.96c-0.45,0.45 -1.12,0.68 -2,0.68l-2.28,0l0,11.2c0,2.4 -1.18,3.6 -3.56,3.6zm16.07,7.2c-0.83,0 -1.5,-0.21 -2,-0.64c-0.51,-0.43 -0.83,-0.99 -0.96,-1.68c-0.11,-0.69 0.01,-1.43 0.36,-2.2l2.68,-5.8l0,2.88l-6.84,-15.64c-0.35,-0.8 -0.47,-1.55 -0.36,-2.24c0.13,-0.69 0.49,-1.24 1.08,-1.64c0.59,-0.43 1.39,-0.64 2.4,-0.64c0.85,0 1.53,0.2 2.04,0.6c0.53,0.37 1.01,1.12 1.44,2.24l4,10.4l-1.36,0l4.24,-10.44c0.42,-1.09 0.9,-1.83 1.44,-2.2c0.56,-0.4 1.31,-0.6 2.24,-0.6c0.8,0 1.44,0.21 1.92,0.64c0.48,0.4 0.77,0.95 0.88,1.64c0.11,0.69 -0.02,1.44 -0.36,2.24l-9.08,20.4c-0.48,1.07 -1.01,1.77 -1.6,2.12c-0.56,0.37 -1.28,0.56 -2.16,0.56z" fill="#3f3f3f" id="svg_1"/>
  <path d="m63.97,18.78l0,26.13c0,10.37 -8.44,18.78 -18.85,18.78l-1.9,0l-9.74,9.69c-0.38,0.38 -0.91,0.62 -1.49,0.62c-0.54,0 -1.03,-0.2 -1.41,-0.53l-0.16,-0.16l-0.01,-0.01l-9.65,-9.61l-1.92,0c-10.4,0 -18.84,-8.41 -18.84,-18.78l0,-26.13c0,-10.37 8.44,-18.78 18.85,-18.78l26.27,0c10.41,0 18.85,8.41 18.85,18.78z" fill="#37C77F" id="svg_2"/>
  <path d="m48,48.15l-32,0l0,-17.23c0,-9.51 7.17,-17.23 16,-17.23c8.83,0 16,7.72 16,17.23l0,17.23z" fill="white" id="svg_3"/>
  <path d="m35.69,18.62l-8.61,0l0,-4.31c0,-2.38 1.93,-4.31 4.3,-4.31c2.38,0 4.31,1.93 4.31,4.31l0,4.31z" fill="white" id="svg_4"/>
  <path d="m25.85,43.23l11.07,0l0,5.54c0,3.06 -2.48,5.54 -5.54,5.54c-3.05,0 -5.53,-2.48 -5.53,-5.54l0,-5.54z" fill="white" id="svg_5"/>
 </g>
</svg>