<svg width="303" height="74" viewBox="0 0 303 74" fill="none" xmlns="http://www.w3.org/2000/svg">
<path d="M91.52 46.36C90.5333 46.36 89.7333 46.1333 89.12 45.68C88.5067 45.2 88.0267 44.4667 87.68 43.48L79.88 21.76C79.4533 20.56 79.52 19.5467 80.08 18.72C80.6667 17.8667 81.6933 17.44 83.16 17.44C84.1467 17.44 84.92 17.68 85.48 18.16C86.04 18.6133 86.48 19.3333 86.8 20.32L92.76 38.2H90.88L97.28 20.32C97.6533 19.3333 98.12 18.6133 98.68 18.16C99.24 17.68 99.96 17.44 100.84 17.44C101.72 17.44 102.427 17.68 102.96 18.16C103.493 18.6133 103.933 19.3467 104.28 20.36L110.28 38.2H108.68L114.8 20.32C115.12 19.3333 115.547 18.6133 116.08 18.16C116.64 17.68 117.413 17.44 118.4 17.44C119.627 17.44 120.52 17.8667 121.08 18.72C121.667 19.5467 121.733 20.56 121.28 21.76L113.4 43.52C113.053 44.48 112.573 45.2 111.96 45.68C111.373 46.1333 110.587 46.36 109.6 46.36C108.587 46.36 107.773 46.1333 107.16 45.68C106.573 45.2 106.107 44.4667 105.76 43.48L100.12 27.64H101.12L95.36 43.52C94.9867 44.48 94.5067 45.2 93.92 45.68C93.3333 46.1333 92.5333 46.36 91.52 46.36ZM126.373 53.56C125.253 53.56 124.387 53.2533 123.773 52.64C123.16 52.0267 122.853 51.1333 122.853 49.96V29.52C122.853 28.3733 123.147 27.4933 123.733 26.88C124.347 26.2667 125.213 25.96 126.333 25.96C127.48 25.96 128.347 26.2667 128.933 26.88C129.547 27.4933 129.853 28.3733 129.853 29.52V31.84L129.413 29.88C129.787 28.68 130.56 27.72 131.733 27C132.933 26.2533 134.293 25.88 135.813 25.88C137.52 25.88 139.013 26.2933 140.293 27.12C141.6 27.9467 142.613 29.12 143.333 30.64C144.053 32.16 144.413 34 144.413 36.16C144.413 38.2667 144.053 40.0933 143.333 41.64C142.613 43.1867 141.6 44.3733 140.293 45.2C139.013 46.0267 137.52 46.44 135.813 46.44C134.347 46.44 133.027 46.0933 131.853 45.4C130.68 44.7067 129.893 43.8 129.493 42.68H129.973V49.96C129.973 51.1333 129.653 52.0267 129.013 52.64C128.4 53.2533 127.52 53.56 126.373 53.56ZM133.573 41.2C134.293 41.2 134.92 41.0267 135.453 40.68C136.013 40.3067 136.453 39.76 136.773 39.04C137.093 38.2933 137.253 37.3333 137.253 36.16C137.253 34.3733 136.907 33.0933 136.213 32.32C135.52 31.52 134.64 31.12 133.573 31.12C132.853 31.12 132.213 31.2933 131.653 31.64C131.093 31.9867 130.653 32.5333 130.333 33.28C130.013 34 129.853 34.96 129.853 36.16C129.853 37.92 130.2 39.2 130.893 40C131.587 40.8 132.48 41.2 133.573 41.2ZM151.178 53.56C150.058 53.56 149.191 53.2533 148.578 52.64C147.965 52.0267 147.658 51.1333 147.658 49.96V29.52C147.658 28.3733 147.951 27.4933 148.538 26.88C149.151 26.2667 150.018 25.96 151.138 25.96C152.285 25.96 153.151 26.2667 153.738 26.88C154.351 27.4933 154.658 28.3733 154.658 29.52V31.84L154.218 29.88C154.591 28.68 155.365 27.72 156.538 27C157.738 26.2533 159.098 25.88 160.618 25.88C162.325 25.88 163.818 26.2933 165.098 27.12C166.405 27.9467 167.418 29.12 168.138 30.64C168.858 32.16 169.218 34 169.218 36.16C169.218 38.2667 168.858 40.0933 168.138 41.64C167.418 43.1867 166.405 44.3733 165.098 45.2C163.818 46.0267 162.325 46.44 160.618 46.44C159.151 46.44 157.831 46.0933 156.658 45.4C155.485 44.7067 154.698 43.8 154.298 42.68H154.778V49.96C154.778 51.1333 154.458 52.0267 153.818 52.64C153.205 53.2533 152.325 53.56 151.178 53.56ZM158.378 41.2C159.098 41.2 159.725 41.0267 160.258 40.68C160.818 40.3067 161.258 39.76 161.578 39.04C161.898 38.2933 162.058 37.3333 162.058 36.16C162.058 34.3733 161.711 33.0933 161.018 32.32C160.325 31.52 159.445 31.12 158.378 31.12C157.658 31.12 157.018 31.2933 156.458 31.64C155.898 31.9867 155.458 32.5333 155.138 33.28C154.818 34 154.658 34.96 154.658 36.16C154.658 37.92 155.005 39.2 155.698 40C156.391 40.8 157.285 41.2 158.378 41.2ZM187.828 46.36C186.708 46.36 185.855 46.0667 185.268 45.48C184.681 44.8933 184.388 44.0267 184.388 42.88V21.08C184.388 19.9067 184.681 19.0133 185.268 18.4C185.855 17.76 186.628 17.44 187.588 17.44C188.441 17.44 189.108 17.6 189.588 17.92C190.068 18.24 190.601 18.7733 191.188 19.52L203.868 35.36H202.748V20.88C202.748 19.76 203.028 18.9067 203.588 18.32C204.175 17.7333 205.028 17.44 206.148 17.44C207.268 17.44 208.108 17.7333 208.668 18.32C209.255 18.9067 209.548 19.76 209.548 20.88V43.04C209.548 44.0533 209.281 44.8667 208.748 45.48C208.215 46.0667 207.495 46.36 206.588 46.36C205.681 46.36 204.961 46.2 204.428 45.88C203.921 45.5333 203.375 45 202.788 44.28L190.108 28.4H191.228V42.88C191.228 44.0267 190.935 44.8933 190.348 45.48C189.788 46.0667 188.948 46.36 187.828 46.36ZM224.181 46.44C221.994 46.44 220.087 46.0267 218.461 45.2C216.834 44.3733 215.567 43.1867 214.661 41.64C213.754 40.0933 213.301 38.2667 213.301 36.16C213.301 34.56 213.554 33.1333 214.061 31.88C214.567 30.6 215.301 29.52 216.261 28.64C217.221 27.7333 218.367 27.0533 219.701 26.6C221.034 26.12 222.527 25.88 224.181 25.88C226.367 25.88 228.274 26.2933 229.901 27.12C231.527 27.9467 232.781 29.1333 233.661 30.68C234.567 32.2 235.021 34.0267 235.021 36.16C235.021 37.7333 234.767 39.16 234.261 40.44C233.754 41.72 233.021 42.8133 232.061 43.72C231.127 44.6 229.981 45.28 228.621 45.76C227.287 46.2133 225.807 46.44 224.181 46.44ZM224.181 41.2C224.901 41.2 225.541 41.0267 226.101 40.68C226.661 40.3067 227.087 39.76 227.381 39.04C227.701 38.2933 227.861 37.3333 227.861 36.16C227.861 34.3733 227.514 33.0933 226.821 32.32C226.127 31.52 225.247 31.12 224.181 31.12C223.461 31.12 222.821 31.2933 222.261 31.64C221.701 31.9867 221.261 32.5333 220.941 33.28C220.621 34 220.461 34.96 220.461 36.16C220.461 37.92 220.807 39.2 221.501 40C222.194 40.8 223.087 41.2 224.181 41.2ZM248.408 46.44C246.408 46.44 244.754 46.1333 243.448 45.52C242.168 44.9067 241.208 43.9867 240.568 42.76C239.928 41.5067 239.608 39.9467 239.608 38.08V31.56H238.248C237.394 31.56 236.728 31.3333 236.248 30.88C235.794 30.4267 235.568 29.7733 235.568 28.92C235.568 28.0667 235.794 27.4267 236.248 27C236.728 26.5467 237.394 26.32 238.248 26.32H239.608V23.84C239.608 22.6667 239.914 21.7733 240.528 21.16C241.141 20.5467 242.021 20.24 243.168 20.24C244.314 20.24 245.194 20.5467 245.808 21.16C246.421 21.7733 246.728 22.6667 246.728 23.84V26.32H250.008C250.888 26.32 251.554 26.5467 252.008 27C252.488 27.4267 252.728 28.0667 252.728 28.92C252.728 29.7733 252.488 30.4267 252.008 30.88C251.554 31.3333 250.888 31.56 250.008 31.56H246.728V37.84C246.728 38.8267 246.954 39.56 247.408 40.04C247.888 40.4933 248.634 40.72 249.648 40.72C250.021 40.72 250.381 40.68 250.728 40.6C251.074 40.52 251.394 40.48 251.688 40.48C252.114 40.4533 252.461 40.5867 252.728 40.88C252.994 41.1467 253.128 41.7733 253.128 42.76C253.128 43.56 253.008 44.24 252.768 44.8C252.528 45.3333 252.101 45.72 251.488 45.96C251.114 46.0933 250.608 46.2 249.968 46.28C249.328 46.3867 248.808 46.44 248.408 46.44ZM259.342 46.36C258.222 46.36 257.356 46.0267 256.742 45.36C256.129 44.6933 255.822 43.7333 255.822 42.48V29.84C255.822 28.5867 256.129 27.6267 256.742 26.96C257.356 26.2933 258.222 25.96 259.342 25.96C260.489 25.96 261.369 26.2933 261.982 26.96C262.622 27.6267 262.942 28.5867 262.942 29.84V42.48C262.942 43.7333 262.636 44.6933 262.022 45.36C261.409 46.0267 260.516 46.36 259.342 46.36ZM259.342 23.12C258.089 23.12 257.116 22.8267 256.422 22.24C255.756 21.6533 255.422 20.8 255.422 19.68C255.422 18.5867 255.756 17.7467 256.422 17.16C257.116 16.5733 258.089 16.28 259.342 16.28C260.649 16.28 261.636 16.5733 262.302 17.16C262.969 17.7467 263.302 18.5867 263.302 19.68C263.302 20.8 262.969 21.6533 262.302 22.24C261.636 22.8267 260.649 23.12 259.342 23.12ZM272.312 46.36C271.166 46.36 270.286 46.0533 269.672 45.44C269.059 44.8267 268.752 43.9333 268.752 42.76V31.56H267.712C266.859 31.56 266.192 31.3333 265.712 30.88C265.259 30.4267 265.032 29.7733 265.032 28.92C265.032 28.0667 265.259 27.4267 265.712 27C266.192 26.5467 266.859 26.32 267.712 26.32H270.792L268.752 28.2V27.08C268.752 24.12 269.486 21.9067 270.952 20.44C272.446 18.9467 274.659 18.0533 277.592 17.76L278.752 17.64C279.606 17.5333 280.286 17.64 280.792 17.96C281.299 18.2533 281.646 18.6533 281.832 19.16C282.019 19.64 282.059 20.1467 281.952 20.68C281.872 21.2133 281.672 21.6667 281.352 22.04C281.032 22.4133 280.606 22.6267 280.072 22.68L279.512 22.72C278.152 22.8267 277.206 23.12 276.672 23.6C276.139 24.08 275.872 24.7867 275.872 25.72V27.04L274.992 26.32H278.152C279.032 26.32 279.699 26.5467 280.152 27C280.606 27.4267 280.832 28.0667 280.832 28.92C280.832 29.7733 280.606 30.4267 280.152 30.88C279.699 31.3333 279.032 31.56 278.152 31.56H275.872V42.76C275.872 45.16 274.686 46.36 272.312 46.36ZM288.378 53.56C287.551 53.56 286.885 53.3467 286.378 52.92C285.871 52.4933 285.551 51.9333 285.418 51.24C285.311 50.5467 285.431 49.8133 285.778 49.04L288.458 43.24V46.12L281.618 30.48C281.271 29.68 281.151 28.9333 281.258 28.24C281.391 27.5467 281.751 27 282.338 26.6C282.925 26.1733 283.725 25.96 284.738 25.96C285.591 25.96 286.271 26.16 286.778 26.56C287.311 26.9333 287.791 27.68 288.218 28.8L292.218 39.2H290.858L295.098 28.76C295.525 27.6667 296.005 26.9333 296.538 26.56C297.098 26.16 297.845 25.96 298.778 25.96C299.578 25.96 300.218 26.1733 300.698 26.6C301.178 27 301.471 27.5467 301.578 28.24C301.685 28.9333 301.565 29.68 301.218 30.48L292.138 50.88C291.658 51.9467 291.125 52.6533 290.538 53C289.978 53.3733 289.258 53.56 288.378 53.56Z" fill="white"/>
<path d="M63.9739 18.7786V44.9078C63.9739 55.2784 55.5339 63.6863 45.1237 63.6863H43.217L33.4805 73.3795C33.0992 73.7594 32.5717 74 31.987 74C31.4467 74 30.9574 73.8037 30.5824 73.4745L30.4172 73.3099L30.4108 73.3036L20.7569 63.6863H18.8439C8.44003 63.6863 0 55.2784 0 44.9078V18.7786C0 8.40794 8.44003 0 18.8503 0H45.1237C55.5339 0 63.9739 8.40794 63.9739 18.7786Z" fill="#37C77F"/>
<path d="M48 48.1538H16V30.9231C16 21.4111 23.1674 13.6923 32 13.6923C40.8326 13.6923 48 21.4111 48 30.9231V48.1538Z" fill="white"/>
<path d="M35.6923 18.6154H27.0769V14.3077C27.0769 11.9297 29.0066 10 31.3846 10C33.7626 10 35.6923 11.9297 35.6923 14.3077V18.6154Z" fill="white"/>
<path d="M25.8462 43.2308H36.9231V48.7692C36.9231 51.8267 34.4421 54.3077 31.3846 54.3077C28.3272 54.3077 25.8462 51.8267 25.8462 48.7692V43.2308Z" fill="white"/>
</svg>
